<?xml version="1.0" encoding="UTF-8"?>
<svg id="Capa_1" data-name="Capa 1" xmlns="http://www.w3.org/2000/svg" viewBox="0 0 1920 1080">
  <defs>
    <style>
      .cls-1 {
        fill: #666396;
      }
    </style>
  </defs>
  <path class="cls-1" d="M.55,1080v-380.72s228.76-272.8,434.48,11.41c205.71,284.2,366.15,16.12,458.22-9.27,60.64-16.72,123.33.16,171.88,38.95,74.26,59.32,118.72,226.74,242.08,141.67,71.16-49.07,69.52-134.61,116.46-200.64,56.07-78.88,169.28-135.77,250.97-58.43,110.39,104.5,219.82,147.45,244.82,133.69v323.34H.55Z"/>
  <g>
    <path class="cls-1" d="M179.14,579.35l98.73-3.25c-.03.64-.71,1.12-1.15,1.53-2.87,2.68-7.81,7.24-10.91,9.37-.61.42-1.1.81-1.91.77h-78.84c-.34,0-.52-.2-.76-.39-1.46-1.22-3.71-6.33-5.17-8.03Z"/>
    <path class="cls-1" d="M228.12,482.15v83.03l2.19-6.42c6.35-22.16,5.74-45.66-1.8-67.43,24.23,19.3,42.65,46.07,49.78,76.49l9.14-.16-3.31,7.1-106.5,3.42-.39-2.67,49.74-3.44-.04-4.94c-15.48-3.44-30.75,2.5-45.11,7.61,20.8-19.49,35.89-44,44.58-71.17l-2.1,21.63c-.27,11.77.21,23.48,1.58,35.15l1.1,5.6v-78.06h-22.58l23.72-5.74ZM228.12,565.57v6.12l49.36-4.01c-11.51-3.6-23.67-5.61-35.78-4.4-4.59.46-9.13,1.84-13.59,2.29Z"/>
  </g>
</svg>