<?xml version="1.0" encoding="UTF-8"?>
<svg id="Capa_1" data-name="Capa 1" xmlns="http://www.w3.org/2000/svg" viewBox="0 0 1920 1080">
  <defs>
    <style>
      .cls-1 {
        fill: #666396;
      }

      .cls-2 {
        fill: #dfdce5;
      }
    </style>
  </defs>
  <rect class="cls-2" width="1920" height="1080"/>
  <path class="cls-1" d="M695.6,696.98l4.7-3.49c4.03-2.43,8.66-4.88,13.42-5.05-6.08,4.46-10.26,11.69-13.77,18.29-2.57,4.82-4.87,9.88-6.78,14.99,6.38-8.23,13.55-15.03,23.35-18.99,6.78-2.74,16.18-3.89,23.36-2.46.6.12,2.14.34,2.42.89h-5.05c-2.23,0-6.62,2.55-7.84,4.53,6.81.14,13.92,3.09,20.1,5.87,3.65,1.64,7.83,3.76,11.23,5.84,1.11.68,5.4,3.38,5.97,4.13.32.43.4.7.33,1.24-4.19-.33-8.21-1.9-12.41-2.39-8.96-1.06-23.2.32-31.76,3.34-.85.3-4.93,1.91-4.95,2.71,2.36.98,4.45,1.36,6.72,2.68.43.25,4.77,3.17,4.07,3.76-8.63.31-17.32,3.76-24.39,8.54,20.43,4.72,33.83,24.59,42.51,42.33-.67.66-4.1-4.54-4.54-5.04-6.53-7.39-23.18-13.67-32.91-13.79-.41,0-1.55-.21-1.23.53,2.51,3.15,5.67,5.76,8.19,8.89.26.32,1.5,1.83,1.21,2.09-5.73-2.08-11.82-2.01-17.73-.65-.24.37.7,8.13.97,8.85s.74.62,1.01,1.09c1.38,2.45,1.42,23.2,1.82,27.82.19,2.22,1.13,3.59,1.39,4.89s-.1,3.16,0,4.54c.59,9.32,0,18.62,1.07,27.85,1.23,10.62-1.93,21.69-.73,32.44.64,5.69-1.73,12.52-1.22,18.3,9.82,1.78,19.8,3.46,28.04,9.59,3.21,2.38,32.53,33.88,34.9,36.97.27.35.16,24.98,0,25.58l-176.39,4.42c4.23-2.93,16.72-59.66,21.19-62.23,2.21-1.27,5.12-3.8,7.24-4.61,2.86-1.08,8.05-1.64,11.21-2.03,6.76-.85,13.71-.73,20.34-2.49-1.09-1.8-1.21-3.74-1.92-5.57-1.72-4.42-4.2-8.54-5.75-13.07-2.87-8.38-5.01-17.8-6.29-26.43-.96-6.46-2.11-12.89-2.76-19.4-.76-.73-4.75,4.02-5.22,3.48l.69-4.53-6.41,5.95-3.34,6.59c.43-7.88,1.15-15.72,6.97-21.6-3.1.35-6.34.39-9.24,1.73l-.49-.82,2.06-3c-3.52-.28-6.71,1.46-9.76,2.95l-6.96,4.71c1.76-5,5.64-8.82,9.06-12.72-.98-.74-2.59.84-3.13-.52,5.27-3.36,11.63-3.31,17.42-1.4-2.97-2.99-7.15-5.23-11.15-6.62-.15-.35.81-.69.87-.69h6.1c-.76-2.34-2.96-3.51-4.53-5.22,6.98.86,12.7,5.02,17.25,10.1h.51c-.19-1.66,1.04-1.15,1.94-1.72.92-.58,3.58-4.2,5.06-5.39,3.2-2.58,7.25-4.44,11.12-5.78-1.76,1.99-4.65,3.45-5.22,6.27,2.3-.36,4.61-1.12,6.97-.52-3.7,2.4-7.56,4.82-10.45,8.19,2.28-.66,3.99-1.89,6.43-2.1,3.58-.31,8.99-.41,11.69,2.1h-3.31s-.17.69-.17.69c1.65-.01,10.69,10.35,10.1,10.81-1.3.19-1.94-.94-2.89-1.46-4.41-2.41-9.44-4.28-14.53-4.11l2.44,3.83c-3.12-.21-6.32-1.09-9.41-.34,4.9,4.62,7.49,11.98,8.01,18.64.03.38.28,1.62-.34,1.56-1.17-5.2-5.85-8.31-9.94-11.15-.79.89,1.59,4.53,1.22,4.87-1.44.19-1.89-1.48-3.12-1.94-1.32-.33-.41,4.67-.31,5.55,1.65,14.16,7.79,29.82,13.83,42.62,1.47,3.12,2.72,4.9,4.53,7.66.54.82,3.29,5.42,3.62,5.61,2.15,1.24,19.46-5.24,23.28-4.1l1.78-17.21c4.08-9.09,2.49-20.62,3.49-30.66.24-2.43,1.52-3.36,1.7-4.92,1.06-8.83-1.29-20.2.34-28.93.15-.8.91-.93,1.06-2.07,1.18-8.74-1.45-20.33-1.36-29.31.01-1.37,1.18-1.13,1.35-2.07.07-.4-.38-5.84-.53-6.11-.45-.6-.5-.12-.88.18-.84.66-2.05,1.96-2.8,2.78-3.09,3.39-6.07,7.05-6.96,11.68l-1.29-4.45c-.31-1.28-1.1-9.85-1.5-10.18-.82-.68-1.6,1.21-1.92,1.74-6.85,11.45-12.42,26.83-7.13,39.9l-.7.18c-4.12-8.08-7.41-17.21-9.24-26.13-1.36-6.6-2.18-18.93-.62-25.36.67-2.78,2.2-5.32,2.88-8.09-8.14,2.61-15.7,7.22-21.43,13.58-.68.28-.73-1.39-.76-1.66-.46-3.69,1.11-6.87,1.99-10.34l-.72-.4c-1.9.75-3.63,1.91-5.31,3.06-8.23,5.62-15.78,13.4-20.94,21.92-2.21,3.65-3.75,7.72-6.3,11.12-.44-.46-.5-1.28-.54-1.9-.51-7.9,4.8-29.15,9.01-35.98.3-.48,2.16-2.22,1.81-2.54-5.39.85-8.09,3.3-11.2,7.44-.24.32-.71,1.09-.64.06,8.12-17.82,27.66-26.56,46.68-25.27l-3.41-1.29c-11.46-2.79-23.44-5.47-35.27-3.59,3.51-3.55,8.75-6.18,13.52-7.56,1.18-.34,2.37-.38,3.49-.7.47-.13.91.1.76-.62-3.46-3.48-9.49-6.55-14.46-6.79-1.55-.07-2.7.28-4.16.36-.56.03-2.39.25-2.63-.36,2.05-.78,4.18-1.4,6.33-1.86,8.5-1.81,24.25-1.56,32.69.63,7.48,1.94,14.77,5.83,21.25,9.93,1.67-21.39,13.19-41,30.84-52.96.57.35-.12.77-.35,1.05-3.09,3.69-7.49,8.42-7.49,13.76v6.45Z"/>
  <path class="cls-1" d="M0,885.98s179.59-226.28,416.37-32.21c236.78,194.07,240.63,68.54,383.35,21.17,142.71-47.37,136.13,91.97,282.14,115.49,146,23.52,156.86-34.88,222.34-90.69,65.48-55.81,139.65,29.99,203.3,89.04,63.65,59.06,252.65,43.67,314.36-113.85,61.71-157.51,98.14-136.42,98.14-136.42v341.49H0v-194.02Z"/>
  <g>
    <path class="cls-1" d="M1665.3,423.98c-6.21-4.83-14.41-12.81-23.03-11.03-9.64,1.98-11.96,20.66-21.05,23.86,5.65-8.65,6.65-26.17,16.72-30.98,6.19-2.96,14.01-1.11,20.1,1.42,1.4-5.79,4.61-12.91,10.09-15.87,10.69-5.77,24.86,4.37,35.67,6.1-1.34,1.18-3.56,1.36-5.27,1.42-11.02.38-26.49-7.99-31.57,6.93-.42,1.24-1.65,5.72-1.65,6.72v11.44Z"/>
    <g>
      <path class="cls-1" d="M1799.21,372.65c.15.89-.77.56-1.4.57-11.04.18-24.84-14.57-35.44-18.7-15.87-6.18-24.17,2.94-31.89,15.52l-7.71,15.44c-3.57-10.55-13.67-31.36-26.02-32.86-18.16-2.19-30,20.19-47.65,20.58,2.91-2.95,6.45-5.28,9.49-8.08,11.8-10.85,24.42-29.85,42.98-25.7,8.84,1.98,16.34,9.21,22.57,15.36,4.05-4.09,8.18-8.39,13.16-11.38,27.55-16.57,42.21,16.94,61.89,29.26Z"/>
      <path class="cls-1" d="M1847.76,372.65c-10.99-6.75-10.79-31.26-25.38-32.92-5.06-.58-10.48,1.26-15,3.42-1.52.73-10.96,7.08-11.51,6.62,2.41-11.19,4.77-30.19-9.9-33.34-9.33-2-19.65,1.91-28.75-1.38-.71-.26-2.52-.73-2.64-1.54,13.12.44,31.72-10.28,43.71-2.15,6.5,4.41,8.67,13.11,10.4,20.31,13.18-3.31,25.12-3.25,30.97,10.85,3.96,9.53,4.27,20.5,8.09,30.12Z"/>
      <path class="cls-1" d="M1783.6,282.25c-5.02.72-11.46-3.46-16.21-1.98-4.5,1.41-5.79,9.68-5.55,13.7-3.4-2.67-7.07-7.81-11.94-7.24-5.62.66-7.3,9.95-12.61,11.7,4.71-9.12,7.89-21.82,20.93-14,4.75-9.78,8.91-9.85,18.32-6.01,2.2.9,5.15,2.38,7.05,3.82Z"/>
    </g>
  </g>
  <g>
    <path class="cls-1" d="M257.64,169c-4.73.58-9.56.42-14.29,1.19-20.17,3.27-38.46,13.7-51.35,29.54-2.18,2.68-8.35,13.23-10.54,13.77-.52.13-5.34-4.58-6.45-5.44-17.18-13.21-36.67-19.59-58.41-18.12l-21.93,4.51c26.5-14.78,58.98-14.27,84.7,1.61,19.36-21.97,49.47-33.34,78.27-27.05Z"/>
    <path class="cls-1" d="M165.85,216.86l-13.31,10.64c-10.12,9.95-16.17,23.27-17.85,37.25-.23,1.88.25,8.59-1.12,9.27-.58.29-9.74-1.45-11.67-1.56-12.5-.72-25.72,2.78-36.43,9.32-4.2,2.57-7.27,6.05-10.94,9.13-.55.46-1.56,1.82-2.01.62,12.37-17.55,32.32-28.33,53.91-27.66.92-10.56,6.96-22.22,14.23-30.08,1.84-1.99,7.77-7.99,9.74-9l15.45-7.93Z"/>
    <path class="cls-1" d="M168.48,264.5c6.91-2.56,15.23-1.03,22.23.09,5.87-9.89,15.36-15.67,26.63-17.49.71,1.08-1.02,1.14-1.72,1.42-5.65,2.27-8.98,3.8-13.45,8.1-4.58,4.41-6.68,9.59-9.22,15.23-7.86-4.78-16.82-6.2-25.87-4.56l-9.2,2.65c3.53-1.45,7.1-4.14,10.6-5.44Z"/>
  </g>
  <path class="cls-1" d="M816.34,222.83h-.2v-.53c.06.18.13.36.2.53Z"/>
  <path class="cls-1" d="M1100.08,263.25c5.04-.95,5.79-6.64,8.45-9.04,2.14-1.92,5.04-1.73,6.83-2.92s3.45-5.17,7-7.26c14.51-8.53,39.98,2.4,50.23,14.18,1.28,1.47,2.39,4.73,2.62,4.88.43.27,7.54.67,10.07,1.43,8.28,2.49,15.17,8.32,13.78,17.72,7.6-2.09,13.68-2.78,20.98,1.01,1.91-11.66,13.88-7.28,20.24-11.03,3.65-2.15,4.26-7.43,11.97-9.29,22.76-5.49,27.9,12.89,37.47,28.15,8.53-1.48,14.13,2.96,21.85,4.15,8.52,1.32,18.34.8,26.99,1.01,3.25.2,3.33,4.35,1.09,6.09-2.04,1.59-14.51,1.02-18.13.95-9.09-.17-17.64.06-26.88,1.04-23.58,2.51-47.38,4.7-71.06,6.94-3.57.34-7.52,1.74-11.03,1.97-9.53.61-18.18-.38-27.48-1.97-.24,1.44,1.73,1.35,2.78,1.69,14.4,4.68,29.81,3.3,44.7,4.31,9.03.61,14.41,1.75,22.48,4.52,5.03,1.73,14.9-.31,12.9,8.33-1.37.64-2.84.99-4.36,1.13-23.05,2.11-49.46.13-73.05.04-26.25-.1-52.51.32-79.01,0-13.07-.15-14,.55-26.25,2.66-11.2,1.93-23.01,2.84-34.26.85-6.21-1.1-12.95-5.68-17.51-6.49-7.04-1.26-16.24,1.39-23.98.98-6.83-.36-14.96-2.22-21.97-3.03-3.74-.43-12.1,1.74-11.54-4.46.27-2.96,2.91-3.25,5.18-3.91,11.18-3.24,24.41.21,36.35-.65,7.38-.53,13.53-3.08,20.51-4l-11.74-6.75-130.78-1.22c-14.29-4.86-2.22-9.3,6.04-10.01,10.52-.9,46.05-1.43,53.56-7.44,1.5-1.2,2.3-3.81,3.86-5.14,5.69-4.87,14.78-.6,20.81-3.19,3.43-1.47,4.02-6.32,7.21-8.79,6.78-5.26,16.45-1.06,24.04-.45,2.97-8.12-.04-17.66,5.01-24.5,2.76-3.74,5.3-7.28,7.98-11.02,4.05-5.64,15.89-9.51,22.64-12.36,12.42-5.25,29.84-1.07,35.56,12.19,1.55,3.59,1.31,10.06,2.29,11.71.75,1.27,4.44,1.89,6.06,2.94,5.47,3.54,8.26,7.48,9.48,14.03Z"/>
  <path class="cls-1" d="M1697.86,115.94c10.15-.71,25.63,2.97,31.99,11.51,2.13,2.86,2.33,5.98,4.63,8.43,3.91-.48,6.5-2.48,10.79-1.89,4.59.63,8.22,5.89,13.05,5.98,5.3.1,13.7-3.76,19.19-3.96,14.78-.53,21.29,7.77,33.36,12.42,14.79,5.7,39.21,6.66,55.46,8.54,4.12.48,24-1.14,25.39,1.1.31.74.27,1.56.21,2.34-.07.86-.02,1.9-.51,2.6-2.13,3.01-21.49,1.07-26.02,2.97-34.04,2.29-73.6-2.4-107.03.97-7.75.78-12.92,6.19-20.01,6.99-21.98,2.49-48.78,1.84-71.04,1.04-7.58-.27-15.84-2.14-23.72-.81-2.64.45-8.69,2.79-10.73,4.75,13.09,1.75,26.36,3.68,39.51,5,9.79.98,19.2-.84,28.89,3.9,3.95,11.61-20.42,8.06-27.94,8.15-24.92.29-44.55,2.93-69.09,5.83-17.89,2.11-37.44-.89-55.83-.83-19.72.07-39.16.44-58.36-4.72-7.77-2.09-16.17-6.93-23.92-8.08-5.74-.85-24.58-.18-28.01-3.48-6.18-5.95,12.65-7.49,16.26-7.74,22.42-1.58,46.07,1.22,68.48.98.24-1.44-1.76-1.4-2.79-1.68-18.02-5.02-28.18-6.29-46.66-6.27-11.94.02-19.38-2.24-30.01-3.08-11.49-.9-24.86,2.1-37.07,1.07-6.5-.55-13.05-3.49-19.98-4.02-9.54-.74-19.86.52-29.49-.02,3.29-3.89,10.86-4.87,15.79-5.7,16.71-2.8,33.01-3.88,49.96-7.04,4.93-.92,12.92-.19,16.77-3.23,2.52-2,2.81-4.56,6.58-6.42,12.02-5.92,25.98-.83,37.9,2.39-6.05-6.53-17.73-17.07-3.22-21.71,12.05-3.85,23.32,2.84,35.21,3.71-6.52-22.22,24.55-12.69,35.99-8.99,7.61-33.37,47.56-62.55,80.63-65.88,38.91-3.93,86.14,20.01,65.38,64.87Z"/>
  <path class="cls-1" d="M1784.31,826.95c-4.43-.9-6.11,1.01-9.51,3-18.19,1.18-37.98.23-55.97,2.03-14.92,1.5-25.94,5.18-42,3.97-7.42-.56-17.11-4.05-24.01-3.98-3.38.04-7.26,1.9-10.97,2.03-35.72,1.23-72.45-1.6-108.07-.07-7.83.34-14.23,2.5-23,2.08-3.3-.16-14.5-.5-14.49-4.55,1.34-4.69,7.55-4.76,11.66-5.37,30.17-4.48,62.27-3.96,92.63-8.37,6.06-.49,6.25-7.58,10.22-10.78,8.07-6.5,32.33-.75,33.52-1.98-.47-15.19,15.9-10.43,24.53-11.98,1.85-.33,3.76-4.32,7.65-5.34,3.38-.88,6.4-.77,9.82-.68-4.61-22.61,24.66-21.06,38.99-15.47,20.24,7.9,34.95,23.96,23.99,45.97-.47.94-1.66.73.01,2.03,9.37,1.37,18.85,1.54,28.03,3.97,2.43.64,5.92.85,6.99,3.5Z"/>
  <path class="cls-1" d="M520.56,204.87c7.13-14.22,29.94-9.23,41.4-2.73,5.37,3.04,9.82,8.32,14.8,11.2,2.42,1.4,5.29,1.48,7.85,3.15,1.94,1.26,3.81,4.67,5.75,5.25,2.81.84,6.71-.15,9.78.22,15.16,1.82,30.7,4.96,45.6,7.65l.49,3.4-1.25,2.02c-2.56.73-5.16,1.66-7.84,1.91-10.83,1.02-26.88.46-38.03.05-5.77-.21-13.35-2.39-18.98-2.12-4.83.23-8.29,3.73-13.81,3.7-10.73-.07-25.41-5.89-36.19-6.62-10.37-.7-23.75,2.95-36.02,2.04-9.28-.69-17.92-5.16-25.96-6.04-7.88-.87-18.57-.56-27.02-.98-6.22-.31-35.55,1.02-37.84-4.26-3.08-7.1,7.41-5.61,11.8-6.8,20.01.8,39.91-2.45,59.53-5.99-4.88-17.33,15.11-15.93,26.45-12.91,6.72,1.79,12.84,5.8,19.46,7.87Z"/>
  <path class="cls-1" d="M167.28,549.71c10.38,1.57,21.69.45,31.9,2.6,4.79,1.01,8.13,1.32,4.98,7.1-19.2,2.82-39.61,1.38-59.06.85l-6.98,4.6c11.14,1.48,25.64-.33,36.28,2.23,5.59,1.35,5,7.08-.73,7.82-9.04,1.18-21.04-1.4-29.99.01-2.67.42-5.53,2.63-8.54,3.46-11.26,3.12-17.24.74-27.6-.44-6.49-.74-12,1.37-17.93-3.07-3.1-2.32-4.68-7.4-8.44-8.56-3.28-1.01-7.01-.19-10.87-1.13-5.27-1.29-10.06-5.86-15.21-7.79-5.4-2.03-16.34-2.7-20.27-4.73-2.48-1.28-2.2-3.32-.8-5.39,2.35-2.91,15.4.35,19.59.39,6.21.06,13.36-.97,20.05-.85,2.08.04,3.91.42,5.89.93,6.36-14.01,20.83-11.26,31.97-4.8,12.89-20.01,47.23-14.54,55.75,6.76Z"/>
  <path class="cls-1" d="M260.62,83.52c-2.35,2.27-11.53.9-15.24,1.26-10.2.98-24.07.66-32.95,2.05-4,.63-7.82,4.19-13.17,4.83-20.17,2.4-28.75-4.93-45.95-7.83-17.09-2.88-41.71.61-57.87-4.13-3.24-.95-6.54-4.45-3.15-7.01,4.38-3.31,28.23.87,34.97.15,2.48-8.07,11.31-5.68,17.96-5.01,6.1-17,31.67-22.71,45.13-11.03,3.46,3,5.93,10.16,6.48,10.52,1.34.87,4.85.31,7.08.92,3.03.82,5.81,4.07,8.75,5.25,12.92,5.18,32.09.72,44.5,3.51,1.66.37,3.18,1.52,4.27,2.8l-.81,3.74Z"/>
</svg>