<?xml version="1.0" encoding="UTF-8"?>
<svg id="Capa_1" data-name="Capa 1" xmlns="http://www.w3.org/2000/svg" viewBox="0 0 50 50">
  <defs>
    <style>
      .cls-1 {
        fill: #dbdadf;
      }
    </style>
  </defs>
  <path class="cls-1" d="M25.58,10.54l1.22.19c2.88.6,5.36,2.77,6.33,5.54.87,2.5.38,5.28.53,7.89.76.51,1.9.38,2.01,1.56v11.41c-.03.5-.36.85-.79,1.05-1.87.85-4.21,1.24-6.22,1.62l-2.44.24c-.8-.03-1.62.04-2.42,0-2.53-.11-6.34-.8-8.66-1.86-.43-.2-.76-.55-.79-1.05v-11.41c.11-1.18,1.25-1.06,2.01-1.56.14-2.6-.34-5.39.53-7.89,1.09-3.13,4.12-5.51,7.46-5.68l.09-.05h1.15ZM30.65,23.39v-4.87c0-.73-.62-2.04-1.05-2.64-2.43-3.38-7.56-3.08-9.57.56-.24.44-.68,1.61-.68,2.08v4.87c2.89-.56,5.85-.73,8.78-.4.84.09,1.67.29,2.51.4ZM26.16,31.18c1.7-.91,1.51-3.47-.29-4.15-2.25-.85-4.2,1.71-2.72,3.59.15.19.66.54.69.69v4.08c.39,1.14,1.92,1.14,2.29,0l.03-4.21Z"/>
</svg>