<?xml version="1.0" encoding="UTF-8"?>
<svg id="Capa_1" data-name="Capa 1" xmlns="http://www.w3.org/2000/svg" viewBox="0 0 50 50">
  <defs>
    <style>
      .cls-1 {
        fill: #dbdadf;
      }
    </style>
  </defs>
  <path class="cls-1" d="M35.52,18.54h9.49c1.9,0,2.69,2.43,1.15,3.55l-7.68,5.58c-2.11,1.53-2.99,4.24-2.18,6.72l2.93,9.02c.59,1.81-1.48,3.31-3.02,2.2l-7.68-5.58c-2.11-1.53-4.96-1.53-7.07,0l-7.68,5.58c-1.54,1.12-3.61-.39-3.02-2.2l2.93-9.02c.8-2.48-.08-5.19-2.18-6.72l-7.68-5.58c-1.54-1.12-.75-3.55,1.15-3.55h9.49c2.6,0,4.91-1.68,5.72-4.15l2.93-9.02c.59-1.81,3.15-1.81,3.73,0l2.93,9.02c.8,2.48,3.11,4.15,5.72,4.15Z"/>
</svg>