<?xml version="1.0" encoding="UTF-8"?>
<svg id="Capa_1" data-name="Capa 1" xmlns="http://www.w3.org/2000/svg" viewBox="0 0 50 50">
  <defs>
    <style>
      .cls-1 {
        fill: #dbdadf;
      }
    </style>
  </defs>
  <path class="cls-1" d="M34.75,28.43c-.1.12-.21.23-.32.34l-4.86,4.86-4.53,4.53-4.62-4.62-4.86-4.86c-.08-.08-.16-.17-.24-.25-2.44-2.7-2.36-6.87.24-9.47,1.34-1.34,3.1-2.01,4.86-2.01,1.65,0,3.3.59,4.61,1.77l-.33.33c.11-.11.22-.21.34-.32.08.07.16.15.24.23l-.23-.23c1.29-1.13,2.9-1.69,4.52-1.69,1.76,0,3.52.67,4.86,2.01,2.57,2.57,2.68,6.68.32,9.38Z"/>
</svg>