<?xml version="1.0" encoding="UTF-8"?>
<svg id="Capa_1" data-name="Capa 1" xmlns="http://www.w3.org/2000/svg" viewBox="0 0 50 50">
  <defs>
    <style>
      .cls-1 {
        fill: #dbdadf;
      }
    </style>
  </defs>
  <path class="cls-1" d="M26.32,2.55l3.4.5c8.96,1.9,16.06,9.35,17.45,18.42l.28,2.22v2.63l-.28,2.22c-1.44,9.29-8.8,16.82-18.03,18.54l-2.82.38h-2.54l-2.31-.28c-9.09-1.42-16.56-8.51-18.43-17.52l-.48-3.25c.04-.9-.05-1.82,0-2.72.09-1.54.43-3.3.85-4.8.18-.65.67-1.63.77-2.21.03-.16.18-.5.29-.67.26-.41.51-1.18.78-1.67C9.12,7.44,16.01,2.97,23.96,2.55h2.37ZM11.51,20.22c.09.34-.06.98,0,1.36.6-.22.99-1.26,1.76-1.01.66.21,1.3,2.32,1.75,2.9l5,.08c.22.08.32.25.45.42.36.46,1.78,3.16,2,3.27.71.21,2.29-.16,2.89.09.38.16.38.62.35.96-.05.64-.65,3.59-.96,4.03-.64.9-1.96,1.77-2.67,2.68-.19.7.17,1.81-.22,2.41-.44.67-2.16,1.49-2.76,2.15-.17,1.05.08,2.25-.04,3.29-.06.56-.33.88-.91.83-.33-.03-2.07-.61-2.38-.78-.19-.1-.3-.2-.41-.38-.63-1.05-.99-2.83-1.55-3.97v-6.96c-.95-.22-2.08-.3-2.99-.57-.29-.09-.46-.15-.65-.4-.33-.43-1.58-3.06-1.63-3.55-.05-.46-.06-1.73.04-2.15.12-.51.69-.89,1.01-1.27l-3.83-2.61-.82-2.08c-2.5,8.43.54,17.61,7.55,22.84,5.95,4.43,13.72,5.39,20.59,2.55,3.43-1.42,6.44-3.8,8.67-6.75l-1.72-1.86-.04-3.03-2.92-5.85-.09-2.9-1.66-1.13c-1,.19-2.02.64-3.03.66l-5.51-2.38c-.25-.27-.28-.63-.34-.97-.24-1.22-.56-3.25-.63-4.46-.01-.22-.03-.45.04-.66.05-.17,2.15-2.3,2.41-2.5.19-.14.23-.19.48-.22,1.45-.17,3.23.11,4.72.02.49.11,1.31,1.84,1.7,2.27l3.94.69,3.72-1.22c-.64-1.07-1.36-2.09-2.25-2.97-.22-.04-1.55,1.24-2.17,1.22-.72-.02-2.94-.54-3.73-.75-.55-.14-1.7-.69-2.16-.72-.75-.04-2.16.72-3.06.68-.33-.01-2.39-.69-2.63-.88-.32-.25-.34-.49-.25-.86.13-.51,1.08-2.32,1.39-2.82.21-.34.25-.56.7-.61,1.58-.19,2.54.39,4.05-.59.08-.06.16,0,.11-.2-4.61-1.76-9.34-1.91-14.08-.53-.13.04-.15-.05-.13.18.3.07.47.32.77.42,1.14.38,2.83.37,4.06.68.71.18.89.35.76,1.12-.04.27-.66,2.05-.79,2.27-.31.53-1.85.65-2.39,1.03l-2.24,3.63c-1.34.63-3.04,2.18-4.44,2.48-1.35.29-2.87.32-4.23.59-.13.09-.12,1.1-.04,1.28.16.35,1.35,1.15,1.44,1.54ZM10.02,22.02v-1.27c0-.11-1.34-1.13-1.45-1.62-.09-.39-.09-2.26.04-2.6.15-.38.42-.46.78-.54,1.48-.33,3.45-.28,4.84-.68.35-.1,3.36-1.95,3.58-2.21.75-.9,1.39-2.77,2.16-3.54.46-.46,1.62-.57,2.22-.89l.37-1.03c-.13-.13-3.12-.44-3.7-.64-.66-.23-1.32-.89-1.94-1.23l-.15-.02c-4.85,2.09-8.91,6.05-10.93,10.95l1.14,3.37,3.04,1.95ZM28.34,9.65c.41,0,.88.35,1.26.35.81-.02,2.16-.75,2.99-.7.57.03,1.69.58,2.33.75,1.06.28,2.22.41,3.29.66l1.27-.75c.04-.18-1.9-1.7-2.2-1.92-.82-.6-1.7-1.12-2.59-1.61-.31-.03-2.25,1.23-2.83,1.35-.81.17-1.81-.08-2.64.08l-.88,1.8ZM32.88,13.79h-3.78s-1.81,1.86-1.81,1.86l.62,4.33,4.6,1.94,3.11-.65,2.66,1.71c.48.58.08,2.62.24,3.44.56,1.76,2.5,4.19,2.9,5.87.21.87-.05,2,.08,2.9l1.08,1.11c4.08-6.11,4.48-14.5.96-20.95l-4.29,1.4c-1.44-.32-3.2-.36-4.6-.75-.17-.05-.34-.1-.47-.23-.29-.28-1.14-1.9-1.29-1.99ZM17.56,41.93v-2.94c0-.38,2.59-1.97,2.94-2.41l.11-2.17,2.95-3.01.49-2.63h-2.06c-.08,0-.49-.21-.56-.32l-2.05-3.43-5.07-.06c-.5-.15-1.16-1.91-1.4-2.42l-.22.09c-.4.61-2.47,2.17-2.63,2.72-.08.26-.08,1.41-.02,1.7.14.67,1.02,1.77,1.23,2.5,1.05.38,2.49.36,3.51.75.39.15.47.31.51.72.21,2.31-.17,4.93,0,7.28l1.3,3.33.97.32Z"/>
</svg>