<?xml version="1.0" encoding="UTF-8"?>
<svg id="Capa_1" data-name="Capa 1" xmlns="http://www.w3.org/2000/svg" viewBox="0 0 50 50">
  <defs>
    <style>
      .cls-1 {
        fill: #dbdadf;
      }
    </style>
  </defs>
  <path class="cls-1" d="M23.95,12.39c8.5-.72,14.91,7.97,11.5,15.86-1.01,2.33-3.45,4.37-3.73,6.97-.14,1.23.54,3.85-1.14,4.13-3.52-.2-7.47.33-10.93.02-1.97-.18-1.23-2.53-1.36-3.91-.26-2.93-2.91-4.94-3.93-7.6-2.69-6.97,2.16-14.85,9.6-15.48ZM29.9,37.56v-2.43c0-2.63,3-5.41,3.97-7.72,2.98-7.15-3.49-14.68-11.03-13.01-5.45,1.21-8.79,7.2-6.93,12.5.93,2.65,4.2,5.48,4.2,8.4v2.26h9.8Z"/>
  <path class="cls-1" d="M20.32,45.48l9.33.02.13.25c0,.15-1.47,1.63-1.7,1.81-1.37,1.1-4.84,1.13-6.22.04-.19-.15-1.68-1.62-1.73-1.73-.09-.19,0-.31.18-.39Z"/>
  <path class="cls-1" d="M19.3,41.73c-.49-.54-.2-1.52.59-1.54l10.46.08c.86.46.51,1.66-.42,1.73-3.17-.22-6.76.3-9.88,0-.23-.02-.6-.1-.75-.28Z"/>
  <path class="cls-1" d="M19.3,44.37c-.4-.44-.29-1.2.24-1.48h10.83c.9.67.5,1.67-.59,1.74-3.25.23-6.81-.12-10.07-.05-.1-.03-.34-.14-.4-.21Z"/>
  <g>
    <path class="cls-1" d="M36.21,33.78l4.51,4.44c.58.89-.37,1.77-1.27,1.27l-4.41-4.4c-.05-.06-.03-.1,0-.16.04-.07,1.09-1.13,1.17-1.15Z"/>
    <path class="cls-1" d="M13.73,33.78l1.26,1.19-4.49,4.49c-.82.6-1.83-.35-1.28-1.19l4.5-4.48Z"/>
  </g>
  <g>
    <path class="cls-1" d="M25.86,8.74h-1.73l.02-6.53c.25-.6.83-.81,1.38-.43.08.06.33.34.33.41v6.55Z"/>
    <g>
      <path class="cls-1" d="M9.94,9.93c-.25-.26-.61-.43-.78-.82-.35-.8.4-1.51,1.2-1.2l4.63,4.59c-.26.19-1.08,1.25-1.34,1.19-1.28-1.21-2.5-2.47-3.71-3.75Z"/>
      <path class="cls-1" d="M39.75,7.86c.84-.19,1.45.62,1,1.33l-4.39,4.42c-.07.08-.11.09-.21.04-.3-.15-.82-.93-1.15-1.16l4.44-4.45c.09-.08.19-.16.31-.19Z"/>
    </g>
  </g>
  <path class="cls-1" d="M24.52,17.2c-.25.22-1.57.45-2.03.64-.87.37-1.74,1.07-2.29,1.82-.4.54-.6,1.44-1.43,1.33-1.99-.27.43-2.99,1.09-3.57.89-.77,3.22-2.02,4.39-1.75.63.14.72,1.13.28,1.52Z"/>
  <g>
    <path class="cls-1" d="M9.97,22.82v1.81H3.51c-.09,0-.47-.36-.52-.46-.25-.49.07-1.35.61-1.35h6.38Z"/>
    <path class="cls-1" d="M40.02,24.63v-1.81h6.3c.07,0,.46.21.54.28.53.49.12,1.53-.46,1.53h-6.38Z"/>
  </g>
</svg>