<?xml version="1.0" encoding="UTF-8"?>
<svg id="Capa_1" data-name="Capa 1" xmlns="http://www.w3.org/2000/svg" viewBox="0 0 50 50">
  <defs>
    <style>
      .cls-1 {
        fill: #dbdadf;
      }
    </style>
  </defs>
  <path class="cls-1" d="M26.48,9.68l1.16.12c6.35.82,11.49,5.58,12.43,11.97l.16,1.43v1.84l-.2,1.73c-1.09,6.31-6.02,10.73-12.45,11.03-8.77.4-15.54-8.29-11.97-16.61,3.44-8.02,15.33-9.08,18.87-.59,2.68,6.44-2.39,13.43-9.46,11.6-4.8-1.24-7.4-7.29-3.35-10.86,2.32-2.04,6.55-2.15,7.87,1.05.92,2.23-.31,5.07-2.87,5.25-1.75.12-2.19-2.24-.55-2.77.49-.16.88-.13.91-.81.07-1.47-1.69-1.55-2.71-1.1-2.85,1.27-1.99,4.93.46,6.14,3.48,1.72,7.25-.59,7.57-4.39.38-4.46-3.58-7.73-7.9-7.14-7.49,1.02-9.22,10.49-3.64,15.16,3.61,3.02,9.35,2.94,12.9-.11,6.21-5.34,4.39-15.81-3.06-19.08-7.46-3.28-16.3,1.19-17.78,9.23-1.03,5.59.56,10.51,5.25,13.77.61.43,1.43.79,1.98,1.2,1.05.79.62,2.37-.65,2.58h-.38c-.61-.21-1.17-.56-1.72-.9-4.16-2.61-6.84-6.26-7.43-11.23l-.12-1.28c.02-.71-.03-1.43,0-2.15.34-8.19,6.54-14.68,14.78-15.09h1.91Z"/>
</svg>